<svg width="480" height="874" viewBox="0 0 480 874" fill="none" xmlns="http://www.w3.org/2000/svg">
<path fill-rule="evenodd" clip-rule="evenodd" d="M69.8558 0H409.181C445.689 0 475.284 27.0667 475.284 60.4552V813.122C475.284 846.511 445.689 873.578 409.181 873.578H69.8558C33.3485 873.578 3.75342 846.511 3.75342 813.122V60.4552C3.75342 27.0667 33.3485 0 69.8558 0Z" fill="#DEDEDE"/>
<path fill-rule="evenodd" clip-rule="evenodd" d="M70.9575 5.03809H408.08C442.153 5.03809 469.775 30.3004 469.775 61.4629V812.115C469.775 843.278 442.153 868.54 408.08 868.54H70.9575C36.884 868.54 9.26196 843.278 9.26196 812.115V61.4629C9.26196 30.3004 36.884 5.03809 70.9575 5.03809Z" fill="white"/>
<rect x="467.572" y="83.9653" width="8.07918" height="6.71724" fill="white"/>
<rect x="3.75342" y="83.9653" width="8.07918" height="6.71724" fill="white"/>
<rect x="467.572" y="782.559" width="8.07918" height="6.71724" fill="white"/>
<rect x="3.75342" y="782.559" width="8.07918" height="6.71724" fill="white"/>
<path fill-rule="evenodd" clip-rule="evenodd" d="M191.043 40.3034C193.477 40.3034 195.45 38.4989 195.45 36.273C195.45 34.0471 193.477 32.2427 191.043 32.2427C188.609 32.2427 186.636 34.0471 186.636 36.273C186.636 38.4989 188.609 40.3034 191.043 40.3034Z" fill="#DEDEDE"/>
<path fill-rule="evenodd" clip-rule="evenodd" d="M293.135 42.9906C297.191 42.9906 300.48 39.9832 300.48 36.2734C300.48 32.5636 297.191 29.5562 293.135 29.5562C289.079 29.5562 285.79 32.5636 285.79 36.2734C285.79 39.9832 289.079 42.9906 293.135 42.9906Z" fill="#DEDEDE"/>
<path fill-rule="evenodd" clip-rule="evenodd" d="M215.281 33.5859H264.491C266.113 33.5859 267.429 34.789 267.429 36.2728C267.429 37.7567 266.113 38.9597 264.491 38.9597H215.281C213.659 38.9597 212.343 37.7567 212.343 36.2728C212.343 34.789 213.659 33.5859 215.281 33.5859Z" fill="#DEDEDE"/>
<path fill-rule="evenodd" clip-rule="evenodd" d="M0.0810547 182.035C0.0810547 181.294 0.868907 180.694 1.84809 180.694H4.48788V244.508H1.84809C0.872182 244.508 0.0810547 243.907 0.0810547 243.168V182.035Z" fill="#DEDEDE"/>
<path fill-rule="evenodd" clip-rule="evenodd" d="M0.0810547 261.634C0.0810547 260.894 0.868907 260.294 1.84809 260.294H4.48788V324.108H1.84809C0.872182 324.108 0.0810547 323.507 0.0810547 322.768V261.634Z" fill="#DEDEDE"/>
<path fill-rule="evenodd" clip-rule="evenodd" d="M0.0810547 119.567C0.0810547 118.825 0.868907 118.224 1.84809 118.224H4.48788V153.154H1.84809C0.872182 153.154 0.0810547 152.555 0.0810547 151.811V119.567Z" fill="#DEDEDE"/>
<path fill-rule="evenodd" clip-rule="evenodd" d="M474.917 200.846H477.12C478.337 200.846 479.323 201.595 479.323 202.523V303.285C479.323 304.212 478.334 304.963 477.12 304.963H474.917V200.846Z" fill="#DEDEDE"/>
<path fill-rule="evenodd" clip-rule="evenodd" d="M122.738 31.5667V31.2326C122.738 29.0093 120.768 27.2067 118.335 27.2046C118.334 27.2046 118.333 27.2046 118.331 27.2046L118.327 27.2046C118.205 27.2047 118.084 27.2093 117.964 27.2183V27.2046L73.5277 27.2046C51.2168 27.2046 33.1323 43.725 33.1323 64.104V807.458C33.1323 827.838 51.2179 844.357 73.5277 844.357H405.877C428.188 844.357 446.272 827.837 446.272 807.458V64.104C446.272 43.7238 428.187 27.2046 405.877 27.2046L361.441 27.2046V27.2183C361.321 27.2093 361.2 27.2047 361.078 27.2046L361.074 27.2046L361.069 27.2046C358.65 27.2067 356.689 28.9893 356.667 31.1954V33.2427C356.667 46.5816 344.81 57.395 330.188 57.395H149.217C134.593 57.395 122.738 46.5845 122.738 33.2427V31.5667Z" fill="black" fill-opacity="0.2"/>
</svg>
